{
  "accessors": [
    {
      "bufferView": 2,
      "componentType": 5126,
      "count": 52653,
      "max": [
        18.266193389892578,
        18.471282958984375,
        5.902220726013184
      ],
      "min": [
        0.2037191390991211,
        0.5047626495361328,
        0.04541897773742676
      ],
      "type": "VEC3"
    },
    {
      "bufferView": 2,
      "byteOffset": 631836,
      "componentType": 5126,
      "count": 52653,
      "max": [
        0.9998542666435242,
        0.9999861717224121,
        0.9999808669090271
      ],
      "min": [
        -0.9999715089797974,
        -0.9999701976776123,
        -0.9993297457695007
      ],
      "type": "VEC3"
    },
    {
      "bufferView": 1,
      "componentType": 5126,
      "count": 52653,
      "max": [
        0.9962530136108398,
        0.9990860223770142
      ],
      "min": [
        0.0036909999325871468,
        0.0024850000627338886
      ],
      "type": "VEC2"
    },
    {
      "bufferView": 0,
      "componentType": 5125,
      "count": 273312,
      "type": "SCALAR"
    },
    {
      "bufferView": 2,
      "byteOffset": 1263672,
      "componentType": 5126,
      "count": 58395,
      "max": [
        17.83399200439453,
        18.653907775878906,
        5.895896911621094
      ],
      "min": [
        0.9743108749389648,
        1.9136180877685547,
        0.2086799144744873
      ],
      "type": "VEC3"
    },
    {
      "bufferView": 2,
      "byteOffset": 1964412,
      "componentType": 5126,
      "count": 58395,
      "max": [
        0.9999819397926331,
        0.9999629259109497,
        0.9999970197677612
      ],
      "min": [
        -0.9998533129692078,
        -0.9999984502792358,
        -0.9968960285186768
      ],
      "type": "VEC3"
    },
    {
      "bufferView": 1,
      "byteOffset": 421224,
      "componentType": 5126,
      "count": 58395,
      "max": [
        0.9960929751396179,
        0.9992319941520691
      ],
      "min": [
        0.003452999982982874,
        0.0026569999754428864
      ],
      "type": "VEC2"
    },
    {
      "bufferView": 0,
      "byteOffset": 1093248,
      "componentType": 5125,
      "count": 309693,
      "type": "SCALAR"
    },
    {
      "bufferView": 2,
      "byteOffset": 2665152,
      "componentType": 5126,
      "count": 64392,
      "max": [
        18.254180908203125,
        17.984466552734375,
        5.426146984100342
      ],
      "min": [
        0.6699237823486328,
        0.2723989486694336,
        0.0
      ],
      "type": "VEC3"
    },
    {
      "bufferView": 2,
      "byteOffset": 3437856,
      "componentType": 5126,
      "count": 64392,
      "max": [
        0.9999464154243469,
        0.9999978542327881,
        0.9999989867210388
      ],
      "min": [
        -0.9999752640724182,
        -0.9999353289604187,
        -0.9961172342300415
      ],
      "type": "VEC3"
    },
    {
      "bufferView": 1,
      "byteOffset": 888384,
      "componentType": 5126,
      "count": 64392,
      "max": [
        0.9965710043907166,
        0.9986519813537598
      ],
      "min": [
        0.0022460001055151224,
        0.0017130000051110983
      ],
      "type": "VEC2"
    },
    {
      "bufferView": 0,
      "byteOffset": 2332020,
      "componentType": 5125,
      "count": 341028,
      "type": "SCALAR"
    },
    {
      "bufferView": 2,
      "byteOffset": 4210560,
      "componentType": 5126,
      "count": 65532,
      "max": [
        18.308353424072266,
        18.095531463623047,
        5.947587966918945
      ],
      "min": [
        2.095409393310547,
        0.10304546356201172,
        0.739163875579834
      ],
      "type": "VEC3"
    },
    {
      "bufferView": 2,
      "byteOffset": 4996944,
      "componentType": 5126,
      "count": 65532,
      "max": [
        0.9999955892562866,
        0.9999564290046692,
        0.9999925494194031
      ],
      "min": [
        -0.999897837638855,
        -0.9999449849128723,
        -0.9998225569725037
      ],
      "type": "VEC3"
    },
    {
      "bufferView": 1,
      "byteOffset": 1403520,
      "componentType": 5126,
      "count": 65532,
      "max": [
        0.993818998336792,
        0.9975230097770691
      ],
      "min": [
        0.0031900000758469105,
        0.0032820000778883696
      ],
      "type": "VEC2"
    },
    {
      "bufferView": 0,
      "byteOffset": 3696132,
      "componentType": 5125,
      "count": 345393,
      "type": "SCALAR"
    },
    {
      "bufferView": 2,
      "byteOffset": 5783328,
      "componentType": 5126,
      "count": 3980,
      "max": [
        16.770692825317383,
        17.249237060546875,
        5.094522953033447
      ],
      "min": [
        2.161337375640869,
        3.9711546897888184,
        0.9575700759887695
      ],
      "type": "VEC3"
    },
    {
      "bufferView": 2,
      "byteOffset": 5831088,
      "componentType": 5126,
      "count": 3980,
      "max": [
        0.9996646642684937,
        0.9996650815010071,
        0.9999881386756897
      ],
      "min": [
        -0.9999449849128723,
        -0.9995919466018677,
        -0.9830576777458191
      ],
      "type": "VEC3"
    },
    {
      "bufferView": 1,
      "byteOffset": 1927776,
      "componentType": 5126,
      "count": 3980,
      "max": [
        0.9579989910125732,
        0.9980630278587341
      ],
      "min": [
        0.003907000180333853,
        0.0034439999144524336
      ],
      "type": "VEC2"
    },
    {
      "bufferView": 0,
      "byteOffset": 5077704,
      "componentType": 5125,
      "count": 11499,
      "type": "SCALAR"
    },
    {
      "bufferView": 2,
      "byteOffset": 5878848,
      "componentType": 5126,
      "count": 65363,
      "max": [
        18.25037956237793,
        18.230941772460938,
        5.290534973144531
      ],
      "min": [
        0.05810356140136719,
        0.0,
        0.31646108627319336
      ],
      "type": "VEC3"
    },
    {
      "bufferView": 2,
      "byteOffset": 6663204,
      "componentType": 5126,
      "count": 65363,
      "max": [
        0.9999822974205017,
        0.9999622106552124,
        0.9999992847442627
      ],
      "min": [
        -0.9999719262123108,
        -0.9998885989189148,
        -0.9997800588607788
      ],
      "type": "VEC3"
    },
    {
      "bufferView": 1,
      "byteOffset": 1959616,
      "componentType": 5126,
      "count": 65363,
      "max": [
        0.9973070025444031,
        0.9993360042572021
      ],
      "min": [
        0.0035920001100748777,
        0.0035470000002533197
      ],
      "type": "VEC2"
    },
    {
      "bufferView": 0,
      "byteOffset": 5123700,
      "componentType": 5125,
      "count": 342504,
      "type": "SCALAR"
    },
    {
      "bufferView": 2,
      "byteOffset": 7447560,
      "componentType": 5126,
      "count": 62309,
      "max": [
        18.3137264251709,
        18.421852111816406,
        5.626029968261719
      ],
      "min": [
        0.0,
        0.2645082473754883,
        0.017194032669067383
      ],
      "type": "VEC3"
    },
    {
      "bufferView": 2,
      "byteOffset": 8195268,
      "componentType": 5126,
      "count": 62309,
      "max": [
        0.9999903440475464,
        0.9999875426292419,
        0.9999960064888
      ],
      "min": [
        -0.9999985694885254,
        -0.9999935030937195,
        -0.9969778656959534
      ],
      "type": "VEC3"
    },
    {
      "bufferView": 1,
      "byteOffset": 2482520,
      "componentType": 5126,
      "count": 62309,
      "max": [
        0.9953709840774536,
        0.9985960125923157
      ],
      "min": [
        0.0032029999420046806,
        0.002065999899059534
      ],
      "type": "VEC2"
    },
    {
      "bufferView": 0,
      "byteOffset": 6493716,
      "componentType": 5125,
      "count": 316770,
      "type": "SCALAR"
    },
    {
      "bufferView": 2,
      "byteOffset": 8942976,
      "componentType": 5126,
      "count": 65532,
      "max": [
        17.68085479736328,
        18.323265075683594,
        5.555773735046387
      ],
      "min": [
        0.3474559783935547,
        0.583003044128418,
        0.4219388961791992
      ],
      "type": "VEC3"
    },
    {
      "bufferView": 2,
      "byteOffset": 9729360,
      "componentType": 5126,
      "count": 65532,
      "max": [
        0.9999967813491821,
        0.9999905824661255,
        0.9999907612800598
      ],
      "min": [
        -0.9999937415122986,
        -0.9999662041664124,
        -0.9968287348747253
      ],
      "type": "VEC3"
    },
    {
      "bufferView": 1,
      "byteOffset": 2980992,
      "componentType": 5126,
      "count": 65532,
      "max": [
        0.996770977973938,
        0.997992992401123
      ],
      "min": [
        0.0029730000533163548,
        0.0013170000165700912
      ],
      "type": "VEC2"
    },
    {
      "bufferView": 0,
      "byteOffset": 7760796,
      "componentType": 5125,
      "count": 326724,
      "type": "SCALAR"
    },
    {
      "bufferView": 2,
      "byteOffset": 10515744,
      "componentType": 5126,
      "count": 1468,
      "max": [
        17.16150665283203,
        16.731185913085938,
        5.323334693908691
      ],
      "min": [
        0.9314870834350586,
        2.152592658996582,
        0.7622048854827881
      ],
      "type": "VEC3"
    },
    {
      "bufferView": 2,
      "byteOffset": 10533360,
      "componentType": 5126,
      "count": 1468,
      "max": [
        0.9962067008018494,
        0.9957883954048157,
        0.9998520612716675
      ],
      "min": [
        -0.9990146160125732,
        -0.9975746870040894,
        -0.9918918013572693
      ],
      "type": "VEC3"
    },
    {
      "bufferView": 1,
      "byteOffset": 3505248,
      "componentType": 5126,
      "count": 1468,
      "max": [
        0.9892870187759399,
        0.9949210286140442
      ],
      "min": [
        0.05344700068235397,
        0.0038759999442845583
      ],
      "type": "VEC2"
    },
    {
      "bufferView": 0,
      "byteOffset": 9067692,
      "componentType": 5125,
      "count": 3645,
      "type": "SCALAR"
    },
    {
      "bufferView": 2,
      "byteOffset": 10550976,
      "componentType": 5126,
      "count": 61224,
      "max": [
        18.266239166259766,
        18.653907775878906,
        5.509605884552002
      ],
      "min": [
        0.25728702545166016,
        0.7392845153808594,
        0.04541897773742676
      ],
      "type": "VEC3"
    },
    {
      "bufferView": 2,
      "byteOffset": 11285664,
      "componentType": 5126,
      "count": 61224,
      "max": [
        0.9999963641166687,
        0.9999017715454102,
        0.9999915957450867
      ],
      "min": [
        -0.9999760985374451,
        -0.9998335838317871,
        -0.9975031018257141
      ],
      "type": "VEC3"
    },
    {
      "bufferView": 1,
      "byteOffset": 3516992,
      "componentType": 5126,
      "count": 61224,
      "max": [
        0.9968060255050659,
        0.9982690215110779
      ],
      "min": [
        0.002856000093743205,
        0.0005409999866969883
      ],
      "type": "VEC2"
    },
    {
      "bufferView": 0,
      "byteOffset": 9082272,
      "componentType": 5125,
      "count": 295020,
      "type": "SCALAR"
    },
    {
      "bufferView": 2,
      "byteOffset": 12020352,
      "componentType": 5126,
      "count": 58391,
      "max": [
        18.299449920654297,
        18.564678192138672,
        5.915306091308594
      ],
      "min": [
        0.03258705139160156,
        0.3336820602416992,
        0.01941704750061035
      ],
      "type": "VEC3"
    },
    {
      "bufferView": 2,
      "byteOffset": 12721044,
      "componentType": 5126,
      "count": 58391,
      "max": [
        0.9999634027481079,
        0.999995231628418,
        0.9999924898147583
      ],
      "min": [
        -0.9999112486839294,
        -0.999966025352478,
        -0.9985556602478027
      ],
      "type": "VEC3"
    },
    {
      "bufferView": 1,
      "byteOffset": 4006784,
      "componentType": 5126,
      "count": 58391,
      "max": [
        0.9962109923362732,
        0.9983659982681274
      ],
      "min": [
        0.0031059999018907547,
        0.0010209999745711684
      ],
      "type": "VEC2"
    },
    {
      "bufferView": 0,
      "byteOffset": 10262352,
      "componentType": 5125,
      "count": 260415,
      "type": "SCALAR"
    },
    {
      "bufferView": 2,
      "byteOffset": 13421736,
      "componentType": 5126,
      "count": 47173,
      "max": [
        18.103824615478516,
        18.5333251953125,
        5.911334991455078
      ],
      "min": [
        0.29820823669433594,
        0.32155799865722656,
        0.04541897773742676
      ],
      "type": "VEC3"
    },
    {
      "bufferView": 2,
      "byteOffset": 13987812,
      "componentType": 5126,
      "count": 47173,
      "max": [
        0.9999655485153198,
        0.9999952912330627,
        0.9999938011169434
      ],
      "min": [
        -0.9999678730964661,
        -0.9999861717224121,
        -0.9999144077301025
      ],
      "type": "VEC3"
    },
    {
      "bufferView": 1,
      "byteOffset": 4473912,
      "componentType": 5126,
      "count": 47173,
      "max": [
        0.9982470273971558,
        0.9997199773788452
      ],
      "min": [
        0.0020749999675899744,
        0.00216299993917346
      ],
      "type": "VEC2"
    },
    {
      "bufferView": 0,
      "byteOffset": 11304012,
      "componentType": 5125,
      "count": 173994,
      "type": "SCALAR"
    }
  ],
  "asset": {
    "extras": {
      "author": "omnidirectional (https://sketchfab.com/omnidirectional)",
      "license": "CC-BY-4.0 (http://creativecommons.org/licenses/by/4.0/)",
      "source": "https://sketchfab.com/3d-models/monteriggioni-high-quality-628f90b70c5547a5852862265c9b1f34",
      "title": "Monteriggioni: HIGH quality"
    },
    "generator": "Sketchfab-12.66.0",
    "version": "2.0"
  },
  "bufferViews": [
    {
      "buffer": 0,
      "byteLength": 11999988,
      "name": "floatBufferViews",
      "target": 34963
    },
    {
      "buffer": 0,
      "byteLength": 4851296,
      "byteOffset": 11999988,
      "byteStride": 8,
      "name": "floatBufferViews",
      "target": 34962
    },
    {
      "buffer": 0,
      "byteLength": 14553888,
      "byteOffset": 16851284,
      "byteStride": 12,
      "name": "floatBufferViews",
      "target": 34962
    }
  ],
  "buffers": [
    {
      "byteLength": 31405172,
      "uri": "scene.bin"
    }
  ],
  "extensionsUsed": [
    "KHR_materials_unlit"
  ],
  "images": [
    {
      "uri": "textures/material_0_baseColor.jpeg"
    },
    {
      "uri": "textures/material_1_baseColor.jpeg"
    },
    {
      "uri": "textures/material_2_baseColor.jpeg"
    },
    {
      "uri": "textures/material_3_baseColor.jpeg"
    },
    {
      "uri": "textures/material_4_baseColor.jpeg"
    },
    {
      "uri": "textures/material_5_baseColor.jpeg"
    },
    {
      "uri": "textures/material_6_baseColor.jpeg"
    },
    {
      "uri": "textures/material_7_baseColor.jpeg"
    },
    {
      "uri": "textures/material_8_baseColor.jpeg"
    },
    {
      "uri": "textures/material_9_baseColor.jpeg"
    }
  ],
  "materials": [
    {
      "doubleSided": true,
      "extensions": {
        "KHR_materials_unlit": {}
      },
      "name": "material_0",
      "pbrMetallicRoughness": {
        "baseColorTexture": {
          "index": 0
        },
        "metallicFactor": 0.0
      }
    },
    {
      "doubleSided": true,
      "extensions": {
        "KHR_materials_unlit": {}
      },
      "name": "material_1",
      "pbrMetallicRoughness": {
        "baseColorTexture": {
          "index": 1
        },
        "metallicFactor": 0.0
      }
    },
    {
      "doubleSided": true,
      "extensions": {
        "KHR_materials_unlit": {}
      },
      "name": "material_2",
      "pbrMetallicRoughness": {
        "baseColorTexture": {
          "index": 2
        },
        "metallicFactor": 0.0
      }
    },
    {
      "doubleSided": true,
      "extensions": {
        "KHR_materials_unlit": {}
      },
      "name": "material_3",
      "pbrMetallicRoughness": {
        "baseColorTexture": {
          "index": 3
        },
        "metallicFactor": 0.0
      }
    },
    {
      "doubleSided": true,
      "extensions": {
        "KHR_materials_unlit": {}
      },
      "name": "material_4",
      "pbrMetallicRoughness": {
        "baseColorTexture": {
          "index": 4
        },
        "metallicFactor": 0.0
      }
    },
    {
      "doubleSided": true,
      "extensions": {
        "KHR_materials_unlit": {}
      },
      "name": "material_5",
      "pbrMetallicRoughness": {
        "baseColorTexture": {
          "index": 5
        },
        "metallicFactor": 0.0
      }
    },
    {
      "doubleSided": true,
      "extensions": {
        "KHR_materials_unlit": {}
      },
      "name": "material_6",
      "pbrMetallicRoughness": {
        "baseColorTexture": {
          "index": 6
        },
        "metallicFactor": 0.0
      }
    },
    {
      "doubleSided": true,
      "extensions": {
        "KHR_materials_unlit": {}
      },
      "name": "material_7",
      "pbrMetallicRoughness": {
        "baseColorTexture": {
          "index": 7
        },
        "metallicFactor": 0.0
      }
    },
    {
      "doubleSided": true,
      "extensions": {
        "KHR_materials_unlit": {}
      },
      "name": "material_8",
      "pbrMetallicRoughness": {
        "baseColorTexture": {
          "index": 8
        },
        "metallicFactor": 0.0
      }
    },
    {
      "doubleSided": true,
      "extensions": {
        "KHR_materials_unlit": {}
      },
      "name": "material_9",
      "pbrMetallicRoughness": {
        "baseColorTexture": {
          "index": 9
        },
        "metallicFactor": 0.0
      }
    }
  ],
  "meshes": [
    {
      "name": "Object_0",
      "primitives": [
        {
          "attributes": {
            "NORMAL": 1,
            "POSITION": 0,
            "TEXCOORD_0": 2
          },
          "indices": 3,
          "material": 0,
          "mode": 4
        }
      ]
    },
    {
      "name": "Object_1",
      "primitives": [
        {
          "attributes": {
            "NORMAL": 5,
            "POSITION": 4,
            "TEXCOORD_0": 6
          },
          "indices": 7,
          "material": 1,
          "mode": 4
        }
      ]
    },
    {
      "name": "Object_2",
      "primitives": [
        {
          "attributes": {
            "NORMAL": 9,
            "POSITION": 8,
            "TEXCOORD_0": 10
          },
          "indices": 11,
          "material": 2,
          "mode": 4
        }
      ]
    },
    {
      "name": "Object_3",
      "primitives": [
        {
          "attributes": {
            "NORMAL": 13,
            "POSITION": 12,
            "TEXCOORD_0": 14
          },
          "indices": 15,
          "material": 3,
          "mode": 4
        }
      ]
    },
    {
      "name": "Object_4",
      "primitives": [
        {
          "attributes": {
            "NORMAL": 17,
            "POSITION": 16,
            "TEXCOORD_0": 18
          },
          "indices": 19,
          "material": 3,
          "mode": 4
        }
      ]
    },
    {
      "name": "Object_5",
      "primitives": [
        {
          "attributes": {
            "NORMAL": 21,
            "POSITION": 20,
            "TEXCOORD_0": 22
          },
          "indices": 23,
          "material": 4,
          "mode": 4
        }
      ]
    },
    {
      "name": "Object_6",
      "primitives": [
        {
          "attributes": {
            "NORMAL": 25,
            "POSITION": 24,
            "TEXCOORD_0": 26
          },
          "indices": 27,
          "material": 5,
          "mode": 4
        }
      ]
    },
    {
      "name": "Object_7",
      "primitives": [
        {
          "attributes": {
            "NORMAL": 29,
            "POSITION": 28,
            "TEXCOORD_0": 30
          },
          "indices": 31,
          "material": 6,
          "mode": 4
        }
      ]
    },
    {
      "name": "Object_8",
      "primitives": [
        {
          "attributes": {
            "NORMAL": 33,
            "POSITION": 32,
            "TEXCOORD_0": 34
          },
          "indices": 35,
          "material": 6,
          "mode": 4
        }
      ]
    },
    {
      "name": "Object_9",
      "primitives": [
        {
          "attributes": {
            "NORMAL": 37,
            "POSITION": 36,
            "TEXCOORD_0": 38
          },
          "indices": 39,
          "material": 7,
          "mode": 4
        }
      ]
    },
    {
      "name": "Object_10",
      "primitives": [
        {
          "attributes": {
            "NORMAL": 41,
            "POSITION": 40,
            "TEXCOORD_0": 42
          },
          "indices": 43,
          "material": 8,
          "mode": 4
        }
      ]
    },
    {
      "name": "Object_11",
      "primitives": [
        {
          "attributes": {
            "NORMAL": 45,
            "POSITION": 44,
            "TEXCOORD_0": 46
          },
          "indices": 47,
          "material": 9,
          "mode": 4
        }
      ]
    }
  ],
  "nodes": [
    {
      "children": [
        1
      ],
      "matrix": [
        0.9861505031585693,
        0.1650092601776123,
        0.01670669578015808,
        0.0,
        -0.011414791457355022,
        0.16801959276199363,
        -0.9857175946235657,
        0.0,
        -0.16545957326889038,
        0.9718751907348633,
        0.16757614910602592,
        0.0,
        -1.8707027038544766e-07,
        -1.8397548728898983e-06,
        1.6051190243615525e-07,
        1.0
      ],
      "name": "Sketchfab_model"
    },
    {
      "children": [
        2,
        3,
        4,
        5,
        6,
        7,
        8,
        9,
        10,
        11,
        12,
        13
      ],
      "matrix": [
        1.0,
        0.0,
        0.0,
        0.0,
        0.0,
        1.0,
        0.0,
        0.0,
        0.0,
        0.0,
        1.0,
        0.0,
        -9.15686321258545,
        -9.326953887939453,
        -2.9737939834594727,
        1.0
      ],
      "name": "model.obj.cleaner.gles"
    },
    {
      "mesh": 0,
      "name": "Object_2"
    },
    {
      "mesh": 1,
      "name": "Object_3"
    },
    {
      "mesh": 2,
      "name": "Object_4"
    },
    {
      "mesh": 3,
      "name": "Object_5"
    },
    {
      "mesh": 4,
      "name": "Object_6"
    },
    {
      "mesh": 5,
      "name": "Object_7"
    },
    {
      "mesh": 6,
      "name": "Object_8"
    },
    {
      "mesh": 7,
      "name": "Object_9"
    },
    {
      "mesh": 8,
      "name": "Object_10"
    },
    {
      "mesh": 9,
      "name": "Object_11"
    },
    {
      "mesh": 10,
      "name": "Object_12"
    },
    {
      "mesh": 11,
      "name": "Object_13"
    }
  ],
  "samplers": [
    {
      "magFilter": 9729,
      "minFilter": 9987,
      "wrapS": 10497,
      "wrapT": 10497
    }
  ],
  "scene": 0,
  "scenes": [
    {
      "name": "Sketchfab_Scene",
      "nodes": [
        0
      ]
    }
  ],
  "textures": [
    {
      "sampler": 0,
      "source": 0
    },
    {
      "sampler": 0,
      "source": 1
    },
    {
      "sampler": 0,
      "source": 2
    },
    {
      "sampler": 0,
      "source": 3
    },
    {
      "sampler": 0,
      "source": 4
    },
    {
      "sampler": 0,
      "source": 5
    },
    {
      "sampler": 0,
      "source": 6
    },
    {
      "sampler": 0,
      "source": 7
    },
    {
      "sampler": 0,
      "source": 8
    },
    {
      "sampler": 0,
      "source": 9
    }
  ]
}
